<?xml version="1.0" encoding="iso-8859-1"?>
<!-- Generator: Adobe Illustrator 19.0.0, SVG Export Plug-In . SVG Version: 6.00 Build 0)  -->
<svg version="1.1" id="Layer_1" xmlns="http://www.w3.org/2000/svg" xmlns:xlink="http://www.w3.org/1999/xlink" x="0px" y="0px"
	 viewBox="0 0 512 512" style="enable-background:new 0 0 512 512;" xml:space="preserve">
<g>
	<polygon style="fill:#4780D1;" points="253.008,48.55 237.944,85.335 204.121,61.819 196.944,35.377 245.819,22.107 	"/>
	<polygon style="fill:#4780D1;" points="375.177,498.731 326.302,512 266.181,290.48 259.004,264.025 259.004,264.013 
		307.879,250.756 315.056,277.222 	"/>
</g>
<polygon style="fill:#4079BF;" points="315.056,277.222 274.706,288.168 266.181,290.48 259.004,264.025 259.004,264.013 
	269.251,209.359 307.879,250.756 "/>
<polygon style="fill:#DD3636;" points="431.927,0 486.798,202.194 307.879,250.756 259.004,264.013 80.073,312.575 25.202,110.381 
	204.121,61.819 253.008,48.55 "/>
<polygon style="fill:#F73C3C;" points="38.499,118 255.846,59.009 424.305,13.297 473.501,194.575 305.041,240.297 256.167,253.554 
	87.694,299.278 "/>
<g>
	<path style="fill:#FFFFFF;" d="M254.213,131.625c-4.942-18.209-23.776-29.003-41.985-24.061c-8.821,2.394-16.182,8.08-20.728,16.01
		c-4.543,7.93-5.729,17.155-3.334,25.976l12.307,45.348c2.394,8.821,8.08,16.182,16.01,20.726c5.25,3.009,11.067,4.544,16.96,4.544
		c3.008,0,6.036-0.401,9.016-1.21c8.821-2.394,16.181-8.08,20.726-16.01c4.543-7.93,5.729-17.156,3.335-25.976L254.213,131.625z
		 M250.649,195.766c-2.625,4.582-6.878,7.866-11.972,9.249c-5.097,1.382-10.426,0.698-15.008-1.927s-7.866-6.878-9.25-11.974
		l-12.308-45.349c-1.382-5.096-0.698-10.425,1.928-15.007c2.626-4.582,6.878-7.866,11.974-9.25c1.728-0.468,3.463-0.692,5.173-0.692
		c8.703,0,16.697,5.8,19.084,14.593l12.308,45.349C253.959,185.855,253.274,191.184,250.649,195.766z"/>
	<path style="fill:#FFFFFF;" d="M410.509,165.866c-1.046-3.852-5.022-6.125-8.865-5.08l-36.929,10.022l-9.439-34.781l19.078-5.178
		c3.851-1.045,6.125-5.014,5.08-8.865c-1.044-3.852-5.021-6.125-8.863-5.08l-19.078,5.178l-9.439-34.781l36.928-10.022
		c3.851-1.045,6.125-5.014,5.081-8.865c-1.045-3.851-5.024-6.125-8.865-5.08L331.298,75.25c-1.85,0.502-3.424,1.718-4.377,3.38
		c-0.952,1.663-1.205,3.635-0.704,5.485l26.448,97.451c0.502,1.85,1.718,3.423,3.381,4.376c1.103,0.632,2.342,0.956,3.592,0.956
		c0.633,0,1.27-0.083,1.892-0.252l43.901-11.915C409.28,173.686,411.554,169.717,410.509,165.866z"/>
	<path style="fill:#FFFFFF;" d="M166.53,120.276c-4.011-0.111-7.299,3.062-7.394,7.051l-1.922,80.991l-42.601-68.906
		c-2.096-3.393-6.548-4.444-9.945-2.346c-3.393,2.098-4.443,6.55-2.346,9.945l55.394,89.595c1.339,2.166,3.687,3.426,6.146,3.426
		c0.627,0,1.264-0.082,1.892-0.253c3.086-0.838,5.255-3.604,5.331-6.801l2.497-105.307
		C173.676,123.681,170.519,120.371,166.53,120.276z"/>
	<path style="fill:#FFFFFF;" d="M314.592,87.269c-1.046-3.851-5.022-6.125-8.865-5.08L252.66,96.591
		c-3.851,1.045-6.125,5.014-5.081,8.865c0.874,3.217,3.788,5.334,6.968,5.334c0.627,0,1.264-0.082,1.896-0.254l19.561-5.309
		l24.557,90.478c0.873,3.217,3.787,5.334,6.967,5.334c0.627,0,1.264-0.082,1.896-0.254c3.851-1.045,6.125-5.014,5.081-8.865
		l-24.555-90.478l19.562-5.309C313.363,95.089,315.636,91.12,314.592,87.269z"/>
</g>
<g>
</g>
<g>
</g>
<g>
</g>
<g>
</g>
<g>
</g>
<g>
</g>
<g>
</g>
<g>
</g>
<g>
</g>
<g>
</g>
<g>
</g>
<g>
</g>
<g>
</g>
<g>
</g>
<g>
</g>
</svg>
