<?xml version="1.0" encoding="iso-8859-1"?>
<!-- Generator: Adobe Illustrator 19.0.0, SVG Export Plug-In . SVG Version: 6.00 Build 0)  -->
<svg version="1.1" id="Layer_1" xmlns="http://www.w3.org/2000/svg" xmlns:xlink="http://www.w3.org/1999/xlink" x="0px" y="0px"
	 viewBox="0 0 511.988 511.988" style="enable-background:new 0 0 511.988 511.988;" xml:space="preserve">
<g>
	
		<rect x="90.628" y="391.667" transform="matrix(-0.2117 -0.9773 0.9773 -0.2117 -144.7279 683.48)" style="fill:#4780D1;" width="225.294" height="16.879"/>
	
		<rect x="278.815" y="314.37" transform="matrix(-0.9779 -0.2089 0.2089 -0.9779 483.1538 864.9592)" style="fill:#4780D1;" width="16.879" height="185.189"/>
	
		<rect x="332.301" y="134.829" transform="matrix(-0.9779 -0.2089 0.2089 -0.9779 641.2546 380.8612)" style="fill:#4780D1;" width="16.879" height="43.474"/>
</g>
<polygon style="fill:#E6E6E6;" points="160.937,269.179 160.926,269.179 78.226,287.094 25.043,41.615 217.159,0 249.816,150.727 
	249.816,150.738 "/>
<path style="fill:#4780D1;" d="M178.301,146.675l-0.011-0.011c-7.078,7.123-19.044-3.818-29.577-1.534
	c-10.544,2.284-18.216,17.468-27.601,13.935c-2.701,2.712-5.086,5.694-7.157,8.89c-7.472,11.602-10.511,26.063-7.36,40.624
	l7.382,34.086l52.71-11.422l2.464-0.54l35.077-25.556l-17.938-54.68C183.748,148.982,181.069,147.722,178.301,146.675z"/>
<polygon style="fill:#F73C3C;" points="169.152,230.704 186.291,150.468 189.003,137.752 249.816,150.738 486.945,201.389 
	453.815,356.493 181.204,298.268 155.873,292.856 160.926,269.179 160.937,269.179 "/>
<path style="fill:#F2F2F2;" d="M135.207,76.483c19.705,5.098,30.693,23.604,56.16,18.09l0.776-0.214
	c0.259,0.912,0.484,1.846,0.686,2.791c4.017,18.579-2.048,36.99-14.539,49.514c-7.078,7.123-16.227,12.334-26.76,14.618
	c-10.544,2.284-21.032,1.317-30.418-2.217c-16.554-6.246-29.697-20.492-33.715-39.071c-0.045-0.225-0.09-0.439-0.135-0.664
	l1.294-0.259c20.233-12.322,26.958-47.009,26.958-47.009L135.207,76.483z"/>
<path style="fill:#808080;" d="M115.586,60.52c-1.609,19.086,4.558,30.541,4.726,30.845c0,0-11.523,15.383-31.757,27.706
	l-1.294,0.259C82.322,95.102,94.487,71.267,115.586,60.52z"/>
<path style="fill:#666666;" d="M192.143,94.359l-0.776,0.214c-25.466,5.514-51.338,1.891-71.042-3.207h-0.011
	c-0.169-0.304-6.336-11.76-4.726-30.845c4.051-2.071,8.44-3.646,13.099-4.659C156.864,49.751,184.659,66.867,192.143,94.359z"/>
<g>
	<path style="fill:#FFFFFF;" d="M306.105,200.181c-13.889-2.921-27.56,6.009-30.48,19.898l-6.995,33.303
		c-2.917,13.889,6.01,27.562,19.899,30.478c1.779,0.374,3.567,0.558,5.343,0.558c4.942,0,9.782-1.43,14.018-4.195
		c5.756-3.759,9.705-9.534,11.118-16.262l6.995-33.303c1.412-6.728,0.12-13.604-3.637-19.36
		C318.607,205.542,312.833,201.594,306.105,200.181z M313.889,228.115l-6.995,33.303c-0.733,3.493-2.783,6.49-5.771,8.44
		c-2.987,1.95-6.554,2.62-10.049,1.888c-7.209-1.515-11.843-8.611-10.329-15.821l6.995-33.303
		c1.321-6.287,6.887-10.615,13.071-10.615c0.907,0,1.826,0.093,2.748,0.286c0,0,0,0,0.001,0c3.492,0.733,6.49,2.783,8.44,5.771
		S314.622,224.624,313.889,228.115z"/>
	<path style="fill:#FFFFFF;" d="M266.6,192.124c-3.008-1.626-6.762-0.508-8.388,2.5l-26.375,48.773l-4.526-55.263
		c-0.279-3.406-3.248-5.951-6.674-5.664c-3.406,0.279-5.942,3.267-5.663,6.673l6.226,76.031c0.223,2.73,2.216,4.99,4.896,5.552
		c0.425,0.09,0.852,0.133,1.274,0.133c2.238,0,4.346-1.219,5.443-3.245l36.288-67.101C270.727,197.505,269.607,193.75,266.6,192.124
		z"/>
	<path style="fill:#FFFFFF;" d="M437.966,228.055l-32.241-6.771c-3.35-0.7-6.628,1.439-7.33,4.785l-15.03,71.566
		c-0.702,3.346,1.439,6.627,4.785,7.329l32.24,6.772c0.43,0.09,0.857,0.133,1.279,0.133c2.866,0,5.438-2.002,6.051-4.919
		c0.702-3.346-1.439-6.627-4.785-7.329l-26.184-5.498l4.999-23.801l13.075,2.746c0.43,0.09,0.858,0.134,1.28,0.134
		c2.866,0,5.438-2.002,6.051-4.919c0.702-3.346-1.439-6.627-4.785-7.329l-13.076-2.746l4.944-23.539l26.184,5.499
		c3.35,0.698,6.626-1.439,7.33-4.785C443.453,232.038,441.312,228.757,437.966,228.055z"/>
	<path style="fill:#FFFFFF;" d="M386.167,223.343c0.702-3.346-1.439-6.627-4.785-7.329l-38.972-8.185
		c-3.352-0.699-6.627,1.439-7.33,4.785c-0.702,3.346,1.439,6.627,4.785,7.329l13.429,2.82l-13.758,65.51
		c-0.702,3.346,1.439,6.627,4.785,7.329c0.43,0.09,0.857,0.133,1.28,0.133c2.866,0,5.438-2.002,6.051-4.919l13.758-65.509
		l13.429,2.82c0.43,0.09,0.857,0.133,1.279,0.133C382.983,228.262,385.554,226.26,386.167,223.343z"/>
</g>
<g>
</g>
<g>
</g>
<g>
</g>
<g>
</g>
<g>
</g>
<g>
</g>
<g>
</g>
<g>
</g>
<g>
</g>
<g>
</g>
<g>
</g>
<g>
</g>
<g>
</g>
<g>
</g>
<g>
</g>
</svg>
